<svg width="151" height="62" viewBox="0 0 151 62" fill="none" xmlns="http://www.w3.org/2000/svg">
<path d="M148.077 50.7368H2.15349V6.87244C2.28406 6.81158 2.41334 6.75258 2.54099 6.69907C2.62177 6.6788 2.70162 6.65114 2.7785 6.61055C2.81629 6.59028 2.86427 6.57001 2.91646 6.54787C4.62493 5.90056 6.0542 5.92083 7.17599 6.61427C10.4203 8.61888 10.9784 15.8721 10.9197 18.4964C10.9195 18.5038 10.9193 18.5112 10.9193 18.5204V39.0501C10.9193 39.6107 11.3736 40.0644 11.9339 40.0644H138.296C138.857 40.0644 139.311 39.6107 139.311 39.0501V18.5204C139.311 18.513 139.311 18.5038 139.311 18.4964C139.252 15.8721 139.81 8.61888 143.054 6.61427C144.175 5.92083 145.603 5.90056 147.311 6.54602C147.364 6.56815 147.413 6.59028 147.451 6.61055C147.528 6.65114 147.608 6.68066 147.69 6.69907C147.817 6.75258 147.946 6.81158 148.077 6.87244V50.7368H148.077ZM18.3879 2.17911H131.842C134.201 2.17911 136.217 2.61804 137.807 3.15656C137.087 3.39075 136.42 3.77068 135.812 4.2981C131.748 7.81316 131.874 16.8313 131.885 17.3661V24.2616C129.361 23.2085 125.843 22.4156 120.941 22.3381L107.295 22.1389H107.273L104.731 22.1592L92.4117 22.3381C80.5807 22.5262 76.4269 26.8675 75.1081 28.9625C73.7891 26.8675 69.6349 22.5262 57.8031 22.3381L45.4786 22.1592L42.9436 22.1389H42.9211L29.274 22.3381C24.3822 22.4156 20.8681 23.2049 18.3454 24.2561V17.3661C18.3651 16.3481 18.4092 7.73938 14.4108 4.29075C13.8017 3.76515 13.1344 3.38708 12.4132 3.15471C14.0005 2.61618 16.0173 2.17911 18.388 2.17911H18.3879ZM137.282 18.5317V28.3244C136.661 27.417 135.624 26.2995 133.913 25.2777V17.355C133.913 17.3477 133.913 17.3403 133.913 17.3329C133.858 14.9576 134.33 8.26316 137.139 5.83249C138.061 5.03579 139.159 4.7573 140.496 4.98414C140.784 5.03212 141.151 5.09851 141.565 5.17778C137.14 8.48446 137.27 17.9692 137.282 18.5317ZM76.4197 31.3876H137.282V38.0359H76.4197V31.3876ZM29.3044 24.3649L42.9392 24.1675L45.4559 24.1878L57.7719 24.3649C64.9765 24.481 68.9459 26.2183 71.007 27.6549C71.8686 28.2561 72.4707 28.8537 72.8881 29.359H14.6815C15.0439 28.8537 15.5936 28.2469 16.4269 27.6254C18.3408 26.2017 22.1289 24.4792 29.3042 24.3649H29.3044ZM133.788 27.6254C134.622 28.2469 135.172 28.8555 135.534 29.359H77.3271C77.7444 28.8537 78.3467 28.2561 79.2081 27.6549C81.2694 26.2183 85.2387 24.481 92.4419 24.3649L104.753 24.1878L107.276 24.1675L120.91 24.3649C128.086 24.4792 131.874 26.2017 133.788 27.6254ZM9.73316 4.98414C11.0687 4.75916 12.1651 5.03393 13.085 5.82695C16.4496 8.72971 16.3181 17.2481 16.3164 17.3348C16.3162 17.3403 16.316 17.3477 16.316 17.355V25.0804C16.316 25.1413 16.3225 25.2003 16.3328 25.2593C14.6179 26.2791 13.5742 27.3931 12.9476 28.3023V18.5317C12.9594 17.9674 13.0902 8.48446 8.66519 5.17778C9.0781 5.09851 9.44511 5.03212 9.73316 4.98414ZM12.9476 38.0359V31.3895C12.9791 31.3913 13.0107 31.395 13.0418 31.395C13.0699 31.395 13.097 31.3895 13.1248 31.3876H74.3907V38.0359H12.9478H12.9476ZM144.341 59.7846H143.202L142.111 53.2395H145.431L144.341 59.7846ZM75.6838 59.7846H74.5448L73.4542 53.2395H76.7744L75.6838 59.7846ZM7.02639 59.7846H5.88778L4.79728 53.2395H8.11706L7.02639 59.7846ZM150.104 6.24004C150.104 6.2161 150.103 6.19025 150.101 6.16444C150.1 6.15524 150.1 6.14785 150.099 6.13864C150.097 6.12204 150.094 6.10544 150.091 6.08885C150.075 5.98187 150.042 5.88042 149.995 5.78637C149.991 5.77902 149.988 5.77163 149.984 5.76424C149.976 5.7495 149.968 5.73657 149.959 5.72369C149.95 5.70891 149.942 5.69231 149.932 5.67757C149.929 5.67204 149.924 5.66837 149.92 5.66284C149.858 5.57431 149.781 5.495 149.691 5.42861C149.679 5.4194 149.668 5.41015 149.656 5.4028C149.647 5.39727 149.638 5.39174 149.63 5.38621C149.609 5.37328 149.589 5.36036 149.567 5.34929C149.566 5.34929 149.565 5.34748 149.564 5.34748C148.625 4.85136 147.728 4.49727 146.876 4.28336C145.653 3.94219 144.044 3.60099 142.793 3.35202C141.766 2.63097 137.808 0.150501 131.841 0.150501H18.387C12.4205 0.150501 8.4619 2.63097 7.43545 3.35202C6.18468 3.60099 4.57637 3.94219 3.35349 4.28336C2.50107 4.49727 1.60426 4.85136 0.664598 5.34748C0.663491 5.34748 0.662429 5.34929 0.661323 5.34929C0.640077 5.36036 0.619983 5.37328 0.599712 5.38621C0.590859 5.39174 0.581609 5.39727 0.572978 5.4028C0.561514 5.41015 0.551202 5.4194 0.540314 5.42675C0.447543 5.495 0.368803 5.57431 0.306085 5.66651C0.302987 5.67018 0.299667 5.6739 0.296879 5.67757C0.286212 5.69417 0.276607 5.71077 0.266826 5.72737C0.259832 5.74029 0.25191 5.75136 0.245049 5.76424C0.240269 5.77349 0.236197 5.78269 0.231417 5.7919C0.186404 5.88228 0.154536 5.98001 0.138115 6.08331C0.13515 6.10173 0.131653 6.12018 0.129617 6.13864C0.128865 6.14599 0.128865 6.15524 0.128334 6.16258C0.12612 6.18843 0.124439 6.21424 0.124262 6.2419L0.124084 6.24376V51.7514C0.124084 52.3121 0.578334 52.7658 1.13841 52.7658H2.66151L4.02789 60.9651C4.10942 61.4538 4.53264 61.8134 5.02836 61.8134H7.88576C8.38152 61.8134 8.80474 61.4538 8.88627 60.9651L10.253 52.7658H71.3184L72.6849 60.9651C72.7664 61.4538 73.1897 61.8134 73.6856 61.8134H76.543C77.0389 61.8134 77.4622 61.4538 77.5435 60.9651L78.9103 52.7658H139.975L141.342 60.9651C141.424 61.4538 141.847 61.8134 142.343 61.8134H145.2C145.696 61.8134 146.119 61.4538 146.2 60.9651L147.567 52.7658H149.091C149.651 52.7658 150.105 52.3121 150.105 51.7514V6.24376C150.105 6.24376 150.105 6.2419 150.105 6.24004H150.104Z" fill="#222222" fill-opacity="0.4"/>
</svg>
